<?xml version="1.0" encoding="utf-8"?>
<!-- Svg Vector Icons : http://www.onlinewebfonts.com/icon -->
<!DOCTYPE svg PUBLIC "-//W3C//DTD SVG 1.1//EN" "http://www.w3.org/Graphics/SVG/1.1/DTD/svg11.dtd">
<svg version="1.1" xmlns="http://www.w3.org/2000/svg" xmlns:xlink="http://www.w3.org/1999/xlink" x="0px" y="0px" viewBox="0 0 256 256" enable-background="new 0 0 256 256" xml:space="preserve">
<metadata> Svg Vector Icons : http://www.onlinewebfonts.com/icon </metadata>
<g><g><g><g><path fill="#000000" d="M216.5,54.3H187l-29.5-29.5h-59L69,54.3H39.5c0,0-29.5,0-29.5,29.5v88.5c0,29.5,29.5,29.5,29.5,29.5s41.8,0,84.9,0c11.9,17.8,32.2,29.5,55.2,29.5c28.6,0,52.9-18.1,62.2-43.4c4.1-7.6,4.2-15.6,4.2-15.6s0-59,0-88.5C246,54.3,216.5,54.3,216.5,54.3z M113.5,169.7c-17.3-6-29.7-22.4-29.7-41.7c0-24.4,19.8-44.3,44.3-44.3c14.1,0,26.6,6.7,34.7,17c-28.5,7.5-49.5,33.3-49.5,64.1C113.3,166.5,113.4,168.1,113.5,169.7z M179.6,215.6c-28-0.1-50.7-22.7-50.8-50.8c0.1-28,22.7-50.7,50.8-50.8c28,0.1,50.7,22.7,50.8,50.8C230.3,192.9,207.6,215.5,179.6,215.6z"/><path fill="#000000" d="M187 128L172.3 128 172.3 157.5 142.8 157.5 142.8 172.3 172.3 172.3 172.3 201.8 187 201.8 187 172.3 216.5 172.3 216.5 157.5 187 157.5 z"/></g></g><g></g><g></g><g></g><g></g><g></g><g></g><g></g><g></g><g></g><g></g><g></g><g></g><g></g><g></g><g></g></g></g>
</svg>